<mxfile host="app.diagrams.net" modified="2023-05-27T08:04:52.347Z" agent="Mozilla/5.0 (Windows NT 10.0; Win64; x64) AppleWebKit/537.36 (KHTML, like Gecko) Chrome/112.0.0.0 Safari/537.36" version="21.3.4" etag="irb7QC2rlE5n8D9mUhl3" type="github">
  <diagram name="第 1 页" id="1cY5jz6hEuKaSQoIXXu8">
    <mxGraphModel>
      <root>
        <mxCell id="0" />
        <mxCell id="1" parent="0" />
      </root>
    </mxGraphModel>
  </diagram>
</mxfile>
